<svg width="19" height="20" viewBox="0 0 19 20" fill="none" xmlns="http://www.w3.org/2000/svg">
<path d="M14.3289 9.83545V5.79063L9.66562 3.31296C8.1095 4.13885 6.55679 4.96474 5.00237 5.79063V12.0545H13.3652H17.6982C17.8565 11.7223 18.0183 11.3948 18.1493 11.0547C18.6874 9.65836 18.8048 8.15703 18.5035 6.71368C18.1766 5.14026 17.3509 3.6405 16.0297 2.42595C14.271 0.808651 11.9674 0 9.66562 0C7.36038 0 5.05685 0.808651 3.30154 2.42595C1.54452 4.04482 0.666015 6.16518 0.666015 8.28397C0.666015 10.4043 1.54452 12.5263 3.30154 14.142L9.66562 20L16.0297 14.1436C16.2987 13.8959 16.5541 13.6295 16.7873 13.3521H14.8992L9.66562 18.1711L4.29412 13.2268C2.81291 11.8633 2.07061 10.0721 2.07061 8.28397C2.07061 6.49585 2.81291 4.70616 4.29412 3.34117C5.77703 1.97461 7.72302 1.2929 9.66562 1.2929C11.6082 1.2929 13.5525 1.97618 15.0354 3.3396C16.1523 4.36765 16.8469 5.63078 17.1227 6.95346C17.3883 8.21972 17.2691 9.53769 16.7703 10.7569H6.40867V6.53346C7.49659 5.95518 8.5811 5.37847 9.66562 4.80176L12.9209 6.53346V9.83858H14.3289V9.83545Z" fill="white"/>
</svg>
