<svg width="16" height="20" viewBox="0 0 16 20" fill="none" xmlns="http://www.w3.org/2000/svg">
<path d="M10.8871 0.115509C10.7954 0.018921 10.6697 -0.0390625 10.5394 -0.0390625H2.7374C1.29773 -0.0390625 0.109375 1.14456 0.109375 2.58408V17.3377C0.109375 18.7773 1.29773 19.961 2.7374 19.961H13.3267C14.7664 19.961 15.9547 18.7773 15.9547 17.3377V5.62272C15.9547 5.49714 15.8968 5.37644 15.8147 5.28459L10.8871 0.115509ZM11.0272 1.66626L14.3268 5.13001H12.1818C11.5442 5.13001 11.0272 4.61793 11.0272 3.98026V1.66626ZM13.3267 18.9948H2.7374C1.83408 18.9948 1.07556 18.246 1.07556 17.3377V2.58408C1.07556 1.68076 1.8292 0.927126 2.7374 0.927126H10.061V3.98026C10.061 5.15412 11.008 6.0962 12.1818 6.0962H14.9886V17.3377C14.9886 18.246 14.2349 18.9948 13.3267 18.9948Z" fill="#696969"/>
<path d="M12.007 15.6611H4.05536C3.7897 15.6611 3.57227 15.8784 3.57227 16.1442C3.57227 16.4099 3.7897 16.6273 4.05536 16.6273H12.0119C12.2776 16.6273 12.495 16.4099 12.495 16.1442C12.495 15.8784 12.2776 15.6611 12.007 15.6611Z" fill="#696969"/>
<path d="M7.67834 13.9273C7.77019 14.0239 7.89577 14.0819 8.03097 14.0819C8.16631 14.0819 8.29189 14.0239 8.3836 13.9273L11.2146 10.8886C11.3981 10.6953 11.3836 10.3862 11.1905 10.2075C10.9971 10.0239 10.688 10.0383 10.5093 10.2316L8.51406 12.3717V7.09638C8.51406 6.83057 8.29662 6.61328 8.03097 6.61328C7.76531 6.61328 7.54787 6.83057 7.54787 7.09638V12.3717L5.55751 10.2316C5.37395 10.0384 5.06954 10.0239 4.87636 10.2075C4.68318 10.3911 4.66869 10.6955 4.85225 10.8886L7.67834 13.9273Z" fill="#696969"/>
</svg>
